<?xml version="1.0" encoding="UTF-8" standalone="no"?>
<!-- Created with Inkscape (http://www.inkscape.org/) -->

<svg
   xmlns:dc="http://purl.org/dc/elements/1.1/"
   xmlns:cc="http://creativecommons.org/ns#"
   xmlns:rdf="http://www.w3.org/1999/02/22-rdf-syntax-ns#"
   xmlns:svg="http://www.w3.org/2000/svg"
   xmlns="http://www.w3.org/2000/svg"
   xmlns:sodipodi="http://sodipodi.sourceforge.net/DTD/sodipodi-0.dtd"
   xmlns:inkscape="http://www.inkscape.org/namespaces/inkscape"
   width="3155"
   height="1555"
   viewBox="0 0 834.7604 411.42709"
   version="1.1"
   id="svg8"
   inkscape:version="0.92.4 (5da689c313, 2019-01-14)"
   sodipodi:docname="samosa-banner.svg">
  <defs
     id="defs2" />
  <sodipodi:namedview
     id="base"
     pagecolor="#ffffff"
     bordercolor="#666666"
     borderopacity="1.0"
     inkscape:pageopacity="0.0"
     inkscape:pageshadow="2"
     inkscape:zoom="0.51318328"
     inkscape:cx="1577.5"
     inkscape:cy="777.5"
     inkscape:document-units="mm"
     inkscape:current-layer="layer1"
     showgrid="false"
     units="px"
     inkscape:window-width="1920"
     inkscape:window-height="991"
     inkscape:window-x="-9"
     inkscape:window-y="-9"
     inkscape:window-maximized="1" />
  <metadata
     id="metadata5">
    <rdf:RDF>
      <cc:Work
         rdf:about="">
        <dc:format>image/svg+xml</dc:format>
        <dc:type
           rdf:resource="http://purl.org/dc/dcmitype/StillImage" />
        <dc:title />
      </cc:Work>
    </rdf:RDF>
  </metadata>
  <g
     inkscape:label="Layer 1"
     inkscape:groupmode="layer"
     id="layer1"
     transform="translate(0,114.4271)">
    <g
       id="g203"
       transform="matrix(5.3242452,0,0,5.3242452,-1209.4725,-554.14972)"
       inkscape:export-xdpi="95.290001"
       inkscape:export-ydpi="95.290001">
      <path
         inkscape:connector-curvature="0"
         d="m 251.81959,115.78151 c 0.30215,-1.10057 0.60431,-2.20114 0.90646,-3.30171 -1.05012,0.90535 -1.11931,2.06674 -0.90646,3.30171 z m 1.29806,-4.74677 c 0.70967,-1.48814 0.7637,-3.03001 0.62646,-4.62068 -0.0418,-0.48264 -0.43081,-1.42648 0.54182,-1.43841 0.8963,-0.011 0.66886,-0.56571 0.74154,-1.00849 0.0434,-0.26465 -0.0427,-0.58156 -0.32194,-0.62629 -0.54047,-0.0865 -0.81288,0.33268 -1.03988,0.73371 -0.12211,0.2157 -0.23277,0.46875 -0.24596,0.71051 -0.1139,2.08242 -0.20447,4.16618 -0.30204,6.24965 z m 4.52091,22.89224 c 1.64721,0.38561 8.21827,-0.58007 9.55534,-1.55254 -3.35628,0.53785 -6.52785,0.84491 -9.55534,1.55254 z m -7.76293,-2.02499 c 0.71611,1.80357 0.62334,2.00791 -1.15877,2.45139 -0.83581,0.20787 -1.22103,0.75585 -1.37764,1.63118 0.78613,-0.15946 0.86191,-0.99343 1.65164,-1.1298 2.14076,-0.36969 2.47661,-1.36246 1.24792,-3.18689 -0.93791,-1.32029 -1.218,-2.61904 -0.80105,-4.33032 0.4651,-1.9089 0.27235,-3.97803 0.38593,-6.40412 -0.9378,2.3129 -0.44437,4.40606 -1.01007,6.3018 -0.54816,1.83655 -0.20482,3.31846 1.06204,4.66676 z m -4.45624,5.08888 c -1.8471,-0.14636 -3.20765,-0.97348 -4.56128,-1.92591 -1.69479,-1.19242 -3.85222,-1.3427 -5.67124,-2.34129 -2.46718,-1.35452 -2.82386,-2.58053 -0.95883,-4.68104 0.98956,-1.11446 2.09719,-2.15416 3.27982,-3.06039 2.85275,-2.18614 4.82956,-5.07348 6.59517,-8.1071 1.76716,-3.03638 3.11887,-6.32155 5.72757,-8.82185 0.49664,-0.47599 0.73223,-1.22817 1.07523,-1.85978 0.47018,-0.8654 1.00879,-1.68104 1.70805,-2.37946 2.20669,-2.2036 2.65618,-2.09745 3.52667,0.82983 0.85571,2.87722 2.45478,5.34284 4.4017,7.56387 3.16526,3.61103 5.62035,7.61764 7.25791,12.13412 0.44576,1.22979 1.25969,2.24734 2.15426,3.18926 0.53773,0.56613 1.05186,1.15817 1.26956,1.91338 0.49975,1.73254 0.8481,3.48871 2.22951,4.85902 0.7374,0.73135 0.16344,1.42721 -0.60235,1.85459 -1.94436,1.08516 -3.95737,1.92728 -6.22477,2.12971 -2.97177,0.26519 -5.92169,0.97958 -8.92398,0.42153 -1.05744,-0.19657 -2.07663,-0.59704 -3.13324,-0.80073 -1.62106,-0.31259 -3.15725,0.35098 -4.729,0.57048 -1.71681,0.23996 -3.2991,-0.13337 -4.81428,-0.79124 -0.95872,-0.41618 0.12537,-0.45293 0.39352,-0.697"
         style="fill:#f59d28;fill-opacity:1;fill-rule:nonzero;stroke:none;stroke-width:0.01237101"
         id="path66" />
      <path
         inkscape:connector-curvature="0"
         d="m 252.74537,104.62634 c -3.59857,2.501 -5.20412,7.47741 -7.40238,11.08771 -1.44658,2.37608 -3.10835,4.68871 -4.69322,6.97677 -0.98131,1.41661 -1.99935,2.70669 -3.36453,3.77418 -1.19807,0.93663 -2.46368,1.76887 -3.60888,2.77464 -1.07593,0.94491 0.93598,4.04453 1.87607,3.21894 2.22387,-1.953 4.72225,-3.36494 6.52788,-5.77121 1.81935,-2.4246 3.51076,-5.02519 5.16821,-7.56292 1.23607,-1.89239 2.21839,-3.94813 3.33094,-5.91314 1.06685,-1.88435 2.22158,-4.10078 4.04197,-5.36602 1.14728,-0.79732 -0.78583,-3.97669 -1.87606,-3.21895 v 0"
         style="fill:#be7825;fill-opacity:1;fill-rule:nonzero;stroke:none;stroke-width:0.01237101"
         id="path68" />
      <path
         inkscape:connector-curvature="0"
         d="m 249.87555,131.9019 c -1.26678,-1.34821 -1.61012,-2.83012 -1.06196,-4.66667 0.5657,-1.89574 0.0723,-3.9889 1.01007,-6.3018 -0.11358,2.42609 0.0792,4.49522 -0.38593,6.40412 -0.41695,1.71128 -0.13686,3.01003 0.80105,4.33032 -0.12106,0.0781 -0.24208,0.15604 -0.3632,0.23407"
         style="fill:#231f20;fill-opacity:1;fill-rule:nonzero;stroke:none;stroke-width:0.01237101"
         id="path70" />
      <path
         inkscape:connector-curvature="0"
         d="m 257.63856,133.92698 c 3.02749,-0.70763 6.19906,-1.01469 9.55534,-1.55254 -1.33707,0.97247 -7.90813,1.93815 -9.55534,1.55254"
         style="fill:#231f20;fill-opacity:1;fill-rule:nonzero;stroke:none;stroke-width:0.01237101"
         id="path72" />
      <path
         inkscape:connector-curvature="0"
         d="m 253.11765,111.03474 c 0.0976,-2.08347 0.18814,-4.16723 0.30204,-6.24965 0.0132,-0.24176 0.12386,-0.4948 0.24596,-0.71051 0.227,-0.40103 0.49941,-0.8202 1.03988,-0.73371 0.27928,0.0447 0.36534,0.36164 0.32194,0.62629 -0.0726,0.44294 0.15476,0.99749 -0.74154,1.00849 -0.97263,0.0119 -0.5836,0.95577 -0.54182,1.43841 0.13724,1.59067 0.0832,3.13254 -0.62646,4.62068"
         style="fill:#231f20;fill-opacity:1;fill-rule:nonzero;stroke:none;stroke-width:0.01237101"
         id="path74" />
      <path
         inkscape:connector-curvature="0"
         d="m 250.23878,131.66787 c 1.22869,1.82443 0.89284,2.8172 -1.24792,3.18689 -0.78973,0.13637 -0.86551,0.97034 -1.65164,1.1298 0.15661,-0.87533 0.54183,-1.42331 1.37764,-1.63118 1.78211,-0.44348 1.87488,-0.64782 1.15869,-2.45148 0.12119,-0.078 0.24214,-0.15597 0.3632,-0.23407"
         style="fill:#231f20;fill-opacity:1;fill-rule:nonzero;stroke:none;stroke-width:0.01237101"
         id="path76" />
      <path
         inkscape:connector-curvature="0"
         d="m 251.81959,115.78151 c -0.21285,-1.23497 -0.14362,-2.39632 0.90646,-3.30171 -0.30215,1.10057 -0.60431,2.20114 -0.90646,3.30171"
         style="fill:#231f20;fill-opacity:1;fill-rule:nonzero;stroke:none;stroke-width:0.01237101"
         id="path78" />
      <path
         inkscape:connector-curvature="0"
         d="m 272.85114,136.15812 c -1.94436,1.08516 -3.95737,1.92728 -6.22477,2.12971 -2.97177,0.26519 -5.92169,0.97958 -8.92398,0.42153 -1.05744,-0.19657 -2.07663,-0.59704 -3.13324,-0.80073 -1.62106,-0.31259 -3.15725,0.35098 -4.729,0.57048 -1.71681,0.23996 -3.2991,-0.13337 -4.81428,-0.79124 -0.95872,-0.41618 0.12537,-0.45293 0.39352,-0.697 -1.8471,-0.14636 -3.20765,-0.97348 -4.56128,-1.92591 -1.69479,-1.19242 -3.85222,-1.3427 -5.67124,-2.34129 -2.46718,-1.35452 -2.82386,-2.58053 -0.95883,-4.68104 0.98956,-1.11446 2.09719,-2.15416 3.27982,-3.06039 2.85275,-2.18614 4.82956,-5.07348 6.59517,-8.1071 1.76716,-3.03638 3.11887,-6.32155 5.72757,-8.82185 0.49664,-0.47599 0.73223,-1.22817 1.07523,-1.85978 0.47018,-0.8654 1.00879,-1.68104 1.70805,-2.37946 2.20669,-2.2036 2.65612,-2.09753 3.52667,0.82983 0.85571,2.87722 2.45478,5.34284 4.4017,7.56387 3.16526,3.61103 5.62042,7.61773 7.25791,12.13412 0.44576,1.22979 1.25969,2.24734 2.15426,3.18926 0.53773,0.56613 1.05186,1.15817 1.26956,1.91338 0.49975,1.73254 0.8481,3.48871 2.22951,4.85902 0.7374,0.73135 0.16344,1.42721 -0.60235,1.85459 z m 0.14147,-3.99722 c -0.22358,-0.32026 -0.72839,-0.59448 -0.45151,-1.04425 0.01,-0.016 0.0206,-0.0276 0.0306,-0.0424 -0.38042,-0.56862 -0.67294,-1.18639 -0.91768,-1.82977 -0.16925,-0.44513 -0.33112,-0.89321 -0.49065,-1.34193 -0.0416,-0.10251 -0.0815,-0.20564 -0.12817,-0.30583 -0.42361,-0.90784 -1.09048,-1.74615 -1.62201,-2.59589 -0.0433,-0.0693 -0.0862,-0.13892 -0.12951,-0.20831 -0.22155,-0.33065 -0.44079,-0.66274 -0.65476,-0.9984 -0.42052,-0.65949 -0.83263,-1.33322 -1.1728,-2.03944 -0.49779,-0.86316 -0.98094,-1.73463 -1.44164,-2.61818 -0.68821,-1.31999 -1.19533,-2.71887 -1.83873,-4.06004 -0.17218,-0.35917 -0.35258,-0.71457 -0.54866,-1.06142 -0.0886,-0.15623 -0.18013,-0.31104 -0.27579,-0.46304 -0.0384,-0.0617 -0.0796,-0.12175 -0.11919,-0.18263 -0.0478,-0.0512 -0.0965,-0.099 -0.1344,-0.1368 -0.0906,-0.0452 -0.15995,-0.0901 -0.21062,-0.13101 -0.69355,-0.29789 -1.21968,-0.8373 -1.53016,-1.48406 -0.0616,-0.06 -0.13083,-0.13142 -0.19075,-0.21031 -1.99039,-2.62119 -4.17087,-5.10994 -4.68986,-8.57429 -0.22178,-1.48087 -0.94927,-1.65363 -2.29753,-1.02318 -1.07014,0.50026 -1.90189,1.25163 -2.57065,2.17797 -2.13707,2.95954 -4.24593,5.93922 -6.34804,8.92374 -0.38432,0.54578 -0.76906,1.11718 -1.01159,1.73279 -1.70579,4.33109 -4.53397,7.79574 -8.14831,10.65781 -1.43762,1.13844 -2.58609,2.50194 -3.48959,4.096 -0.57647,1.01694 -0.42952,1.86481 0.40558,2.6351 1.08197,0.99809 2.36591,1.6699 3.75126,2.08819 1.9496,0.58846 3.6766,1.53277 5.3042,2.74714 3.16756,2.36324 6.67235,3.10103 10.50265,1.90992 0.7626,-0.23724 1.57963,-0.40036 2.27947,-0.0599 3.02202,1.4693 6.15302,1.03651 9.27542,0.61603 2.99289,-0.40284 6.07611,-0.42328 8.77031,-2.14336 2.12574,-1.35727 2.28687,-1.8419 0.90691,-3.90031 -0.25833,-0.38533 -0.54834,-0.7493 -0.81385,-1.12996"
         style="fill:#231f20;fill-opacity:1;fill-rule:nonzero;stroke:none;stroke-width:0.01237101"
         id="path80" />
    </g>
    <text
       xml:space="preserve"
       style="font-style:normal;font-weight:normal;font-size:8.00895405px;line-height:1.25;font-family:sans-serif;letter-spacing:0px;word-spacing:0px;fill:#f59d28;fill-opacity:1;stroke:none;stroke-width:0.20022386"
       x="280.86697"
       y="123.32951"
       id="text207"><tspan
         sodipodi:role="line"
         id="tspan205"
         x="280.86697"
         y="123.32951"
         style="font-style:italic;font-variant:normal;font-weight:600;font-stretch:normal;font-size:153.77192688px;font-family:'Source Sans Pro';-inkscape-font-specification:'Source Sans Pro Semi-Bold Italic';fill:#f59d28;fill-opacity:1;stroke-width:0.20022386">Samosa</tspan></text>
  </g>
</svg>
